<svg width="206" height="33" viewBox="0 0 206 33" fill="none" xmlns="http://www.w3.org/2000/svg">
<path d="M3.92948 24.068C1.86682 24.068 0.835485 23.8413 0.835485 23.388V1.356C0.835485 0.585332 1.18682 0.199998 1.88948 0.199998H7.87349C11.2282 0.199998 13.6422 0.891332 15.1155 2.274C16.6115 3.65667 17.3595 5.66267 17.3595 8.292C17.3595 10.468 16.6568 12.4627 15.2515 14.276C14.5488 15.1827 13.5175 15.908 12.1575 16.452C10.7975 16.996 9.21082 17.268 7.39748 17.268V23.354C7.39748 23.626 6.96682 23.8187 6.10548 23.932C5.26682 24.0227 4.54148 24.068 3.92948 24.068ZM7.39748 6.116V11.488H7.83948C8.63282 11.488 9.30148 11.2387 9.84549 10.74C10.3895 10.2413 10.6615 9.53867 10.6615 8.632C10.6615 7.72533 10.4688 7.07933 10.0835 6.694C9.72082 6.30867 9.06348 6.116 8.11149 6.116H7.39748ZM27.6381 23.966C27.6381 24.1247 26.6068 24.204 24.5441 24.204C22.4814 24.1587 21.4501 24.068 21.4501 23.932V12.644H20.5321C20.1694 12.644 19.8748 12.4287 19.6481 11.998C19.4441 11.5447 19.3421 10.9893 19.3421 10.332C19.3421 7.884 20.0674 6.66 21.5181 6.66C22.5381 6.66 23.3881 6.97733 24.0681 7.612C24.7481 8.224 25.0881 8.92667 25.0881 9.72C25.5641 8.79067 26.1988 8.054 26.9921 7.51C27.8081 6.94333 28.6354 6.66 29.4741 6.66C30.7888 6.66 31.5821 7 31.8541 7.68C31.9221 7.86133 31.9561 8.13333 31.9561 8.496C31.9561 8.836 31.8428 9.45933 31.6161 10.366C31.4121 11.2727 31.1968 11.93 30.9701 12.338C30.7434 12.746 30.6074 12.95 30.5621 12.95C30.5168 12.95 30.3014 12.8707 29.9161 12.712C29.5534 12.5307 29.2248 12.44 28.9301 12.44C28.0688 12.44 27.6381 13.12 27.6381 14.48V23.966ZM35.1346 21.994C33.7292 20.43 33.0266 18.2653 33.0266 15.5C33.0266 12.7347 33.7292 10.57 35.1346 9.006C36.5626 7.442 38.4779 6.66 40.8806 6.66C43.2832 6.66 45.1872 7.442 46.5926 9.006C47.9979 10.57 48.7006 12.7347 48.7006 15.5C48.7006 18.2653 47.9979 20.43 46.5926 21.994C45.1872 23.558 43.2832 24.34 40.8806 24.34C38.4779 24.34 36.5626 23.558 35.1346 21.994ZM40.8806 12.338C39.6112 12.338 38.9766 13.3807 38.9766 15.466C38.9766 17.5513 39.6112 18.594 40.8806 18.594C42.1726 18.594 42.8186 17.5513 42.8186 15.466C42.8186 13.3807 42.1726 12.338 40.8806 12.338Z" fill="#5C5C5C"/>
<path d="M57.9722 24.102C57.9722 24.2607 56.8956 24.34 54.7422 24.34C52.6116 24.34 51.5462 24.272 51.5462 24.136V18.016C51.5462 17.812 52.6116 17.71 54.7422 17.71C56.8956 17.71 57.9722 17.7667 57.9722 17.88V24.102ZM57.9722 13.188C57.9722 13.3467 56.8956 13.426 54.7422 13.426C52.6116 13.426 51.5462 13.358 51.5462 13.222V7.102C51.5462 6.898 52.6116 6.796 54.7422 6.796C56.8956 6.796 57.9722 6.85267 57.9722 6.966V13.188Z" fill="#969696"/>
<path d="M77.2656 24H73.3477V12.6777C73.3477 11.2721 73.082 10.2262 72.5508 9.54004C72.0195 8.84277 71.1895 8.49414 70.0605 8.49414C68.5553 8.49414 67.4486 8.98665 66.7402 9.97168C66.043 10.9456 65.6943 12.5726 65.6943 14.8525V24H61.793V5.63867H64.8477L65.3955 8.0459H65.5947C66.1038 7.17155 66.8398 6.49642 67.8027 6.02051C68.7767 5.5446 69.8447 5.30664 71.0068 5.30664C73.8291 5.30664 75.6995 6.26953 76.6182 8.19531H76.8838C77.4261 7.28776 78.1898 6.57943 79.1748 6.07031C80.1598 5.5612 81.2887 5.30664 82.5615 5.30664C84.7529 5.30664 86.3467 5.86003 87.3428 6.9668C88.3499 8.07357 88.8535 9.76139 88.8535 12.0303V24H84.9521V12.6777C84.9521 11.2721 84.681 10.2262 84.1387 9.54004C83.6074 8.84277 82.7773 8.49414 81.6484 8.49414C80.1322 8.49414 79.0199 8.97005 78.3115 9.92188C77.6143 10.8626 77.2656 12.3125 77.2656 14.2715V24ZM105.787 24L105.007 21.4434H104.874C103.989 22.5612 103.098 23.3249 102.201 23.7344C101.305 24.1328 100.154 24.332 98.748 24.332C96.944 24.332 95.5329 23.8451 94.5146 22.8711C93.5075 21.8971 93.0039 20.5192 93.0039 18.7373C93.0039 16.8447 93.7067 15.417 95.1123 14.4541C96.5179 13.4912 98.6595 12.9655 101.537 12.877L104.708 12.7773V11.7979C104.708 10.6247 104.431 9.75033 103.878 9.1748C103.336 8.58822 102.489 8.29492 101.338 8.29492C100.397 8.29492 99.4951 8.43327 98.6318 8.70996C97.7686 8.98665 96.9385 9.31315 96.1416 9.68945L94.8799 6.90039C95.876 6.38021 96.9661 5.9873 98.1504 5.72168C99.3346 5.44499 100.452 5.30664 101.504 5.30664C103.839 5.30664 105.599 5.81576 106.783 6.83398C107.979 7.85221 108.576 9.4515 108.576 11.6318V24H105.787ZM99.9766 21.3438C101.393 21.3438 102.528 20.9508 103.38 20.165C104.243 19.3682 104.675 18.2559 104.675 16.8281V15.2344L102.317 15.334C100.48 15.4004 99.141 15.7103 98.2998 16.2637C97.4697 16.806 97.0547 17.6416 97.0547 18.7705C97.0547 19.5895 97.2982 20.2259 97.7852 20.6797C98.2721 21.1224 99.0026 21.3438 99.9766 21.3438ZM130.175 24H126.257V12.7109C126.257 11.2943 125.969 10.2373 125.394 9.54004C124.829 8.84277 123.927 8.49414 122.688 8.49414C121.038 8.49414 119.832 8.98112 119.068 9.95508C118.305 10.929 117.923 12.5615 117.923 14.8525V24H114.021V5.63867H117.076L117.624 8.0459H117.823C118.377 7.17155 119.162 6.49642 120.181 6.02051C121.199 5.5446 122.328 5.30664 123.567 5.30664C127.972 5.30664 130.175 7.54785 130.175 12.0303V24ZM147.092 24L146.312 21.4434H146.179C145.293 22.5612 144.402 23.3249 143.506 23.7344C142.609 24.1328 141.458 24.332 140.053 24.332C138.249 24.332 136.838 23.8451 135.819 22.8711C134.812 21.8971 134.309 20.5192 134.309 18.7373C134.309 16.8447 135.011 15.417 136.417 14.4541C137.823 13.4912 139.964 12.9655 142.842 12.877L146.013 12.7773V11.7979C146.013 10.6247 145.736 9.75033 145.183 9.1748C144.64 8.58822 143.794 8.29492 142.643 8.29492C141.702 8.29492 140.8 8.43327 139.937 8.70996C139.073 8.98665 138.243 9.31315 137.446 9.68945L136.185 6.90039C137.181 6.38021 138.271 5.9873 139.455 5.72168C140.639 5.44499 141.757 5.30664 142.809 5.30664C145.144 5.30664 146.904 5.81576 148.088 6.83398C149.283 7.85221 149.881 9.4515 149.881 11.6318V24H147.092ZM141.281 21.3438C142.698 21.3438 143.832 20.9508 144.685 20.165C145.548 19.3682 145.979 18.2559 145.979 16.8281V15.2344L143.622 15.334C141.785 15.4004 140.446 15.7103 139.604 16.2637C138.774 16.806 138.359 17.6416 138.359 18.7705C138.359 19.5895 138.603 20.2259 139.09 20.6797C139.577 21.1224 140.307 21.3438 141.281 21.3438ZM170.832 5.63867V7.78027L167.694 8.36133C167.982 8.7487 168.22 9.22461 168.408 9.78906C168.596 10.3535 168.69 10.9512 168.69 11.582C168.69 13.4746 168.037 14.9632 166.731 16.0479C165.425 17.1325 163.627 17.6748 161.336 17.6748C160.749 17.6748 160.218 17.6305 159.742 17.542C158.901 18.0622 158.48 18.6709 158.48 19.3682C158.48 19.7887 158.674 20.1042 159.062 20.3145C159.46 20.5247 160.185 20.6299 161.236 20.6299H164.44C166.466 20.6299 168.004 21.0615 169.056 21.9248C170.107 22.7881 170.633 24.0332 170.633 25.6602C170.633 27.7409 169.775 29.3457 168.06 30.4746C166.344 31.6035 163.865 32.168 160.622 32.168C158.121 32.168 156.212 31.7253 154.895 30.8398C153.577 29.9544 152.919 28.6927 152.919 27.0547C152.919 25.9258 153.273 24.974 153.981 24.1992C154.701 23.4355 155.702 22.9043 156.986 22.6055C156.466 22.3841 156.035 22.0299 155.691 21.543C155.359 21.0449 155.193 20.5247 155.193 19.9824C155.193 19.2962 155.387 18.7152 155.774 18.2393C156.162 17.7633 156.737 17.293 157.501 16.8281C156.549 16.4186 155.774 15.7546 155.177 14.8359C154.59 13.9062 154.297 12.8216 154.297 11.582C154.297 9.58984 154.922 8.0459 156.173 6.9502C157.435 5.85449 159.228 5.30664 161.552 5.30664C162.072 5.30664 162.614 5.34538 163.179 5.42285C163.754 5.48926 164.186 5.5612 164.474 5.63867H170.832ZM156.405 26.8555C156.405 27.6966 156.782 28.3441 157.534 28.7979C158.298 29.2516 159.366 29.4785 160.738 29.4785C162.863 29.4785 164.446 29.1742 165.486 28.5654C166.527 27.9567 167.047 27.1488 167.047 26.1416C167.047 25.3447 166.759 24.7747 166.184 24.4316C165.619 24.0996 164.562 23.9336 163.013 23.9336H160.058C158.94 23.9336 158.049 24.1937 157.385 24.7139C156.732 25.2451 156.405 25.959 156.405 26.8555ZM158.082 11.582C158.082 12.7331 158.375 13.6185 158.962 14.2383C159.56 14.8581 160.412 15.168 161.519 15.168C163.776 15.168 164.905 13.9616 164.905 11.5488C164.905 10.3535 164.623 9.4349 164.059 8.79297C163.505 8.13997 162.659 7.81348 161.519 7.81348C160.39 7.81348 159.532 8.13444 158.945 8.77637C158.37 9.41829 158.082 10.3535 158.082 11.582ZM182.271 24.332C179.415 24.332 177.179 23.502 175.563 21.8418C173.959 20.1706 173.156 17.874 173.156 14.9521C173.156 11.9528 173.903 9.59538 175.397 7.87988C176.892 6.16439 178.945 5.30664 181.557 5.30664C183.98 5.30664 185.895 6.04264 187.301 7.51465C188.706 8.98665 189.409 11.012 189.409 13.5908V15.6992H177.174C177.229 17.4811 177.711 18.8535 178.618 19.8164C179.526 20.7682 180.804 21.2441 182.453 21.2441C183.538 21.2441 184.545 21.1445 185.475 20.9453C186.415 20.735 187.423 20.3919 188.496 19.916V23.0869C187.544 23.5407 186.581 23.8617 185.607 24.0498C184.633 24.238 183.521 24.332 182.271 24.332ZM181.557 8.26172C180.317 8.26172 179.321 8.65462 178.568 9.44043C177.827 10.2262 177.384 11.3717 177.24 12.877H185.574C185.552 11.3607 185.187 10.2152 184.479 9.44043C183.77 8.65462 182.796 8.26172 181.557 8.26172ZM203.155 5.30664C203.941 5.30664 204.589 5.36198 205.098 5.47266L204.716 9.1084C204.162 8.97559 203.587 8.90918 202.989 8.90918C201.429 8.90918 200.161 9.41829 199.188 10.4365C198.225 11.4548 197.743 12.7773 197.743 14.4043V24H193.842V5.63867H196.896L197.411 8.87598H197.61C198.219 7.78027 199.01 6.91146 199.984 6.26953C200.969 5.6276 202.026 5.30664 203.155 5.30664Z" fill="#EF8157"/>
</svg>
